<svg width="45" height="47" viewBox="0 0 45 47" fill="none" xmlns="http://www.w3.org/2000/svg">
<path fill-rule="evenodd" clip-rule="evenodd" d="M7.5 7.83341C7.00272 7.83341 6.5258 8.03974 6.17417 8.407C5.82254 8.77426 5.625 9.27237 5.625 9.79175V37.2084C5.625 37.7278 5.82254 38.2259 6.17417 38.5932C6.52581 38.9604 7.00272 39.1667 7.5 39.1667H37.5C37.9973 39.1667 38.4742 38.9604 38.8258 38.5932C39.1775 38.2259 39.375 37.7278 39.375 37.2084V15.6667C39.375 15.1474 39.1775 14.6493 38.8258 14.282C38.4742 13.9147 37.9973 13.7084 37.5 13.7084H20.625C19.9981 13.7084 19.4127 13.3812 19.0649 12.8364L15.8715 7.83341H7.5ZM3.52252 5.6375C4.57742 4.53572 6.00816 3.91675 7.5 3.91675H16.875C17.5019 3.91675 18.0873 4.24399 18.4351 4.78879L21.6285 9.79175H37.5C38.9918 9.79175 40.4226 10.4107 41.4775 11.5125C42.5324 12.6143 43.125 14.1086 43.125 15.6667V37.2084C43.125 38.7666 42.5324 40.2609 41.4775 41.3627C40.4226 42.4644 38.9918 43.0834 37.5 43.0834H7.5C6.00816 43.0834 4.57742 42.4644 3.52252 41.3627C2.46763 40.2609 1.875 38.7666 1.875 37.2084V9.79175C1.875 8.2336 2.46763 6.73927 3.52252 5.6375Z" fill="#394868"/>
<path fill-rule="evenodd" clip-rule="evenodd" d="M22.5 19.5833C23.5355 19.5833 24.375 20.46 24.375 21.5416V33.2916C24.375 34.3731 23.5355 35.2499 22.5 35.2499C21.4645 35.2499 20.625 34.3731 20.625 33.2916V21.5416C20.625 20.46 21.4645 19.5833 22.5 19.5833Z" fill="#394868"/>
<path fill-rule="evenodd" clip-rule="evenodd" d="M15 27.4166C15 26.335 15.8395 25.4583 16.875 25.4583H28.125C29.1605 25.4583 30 26.335 30 27.4166C30 28.4981 29.1605 29.3749 28.125 29.3749H16.875C15.8395 29.3749 15 28.4981 15 27.4166Z" fill="#394868"/>
</svg>
